<?xml version="1.0" encoding="utf-8"?>
<!-- Generator: Adobe Illustrator 25.3.1, SVG Export Plug-In . SVG Version: 6.00 Build 0)  -->
<svg version="1.1" id="Livello_1" xmlns="http://www.w3.org/2000/svg" xmlns:xlink="http://www.w3.org/1999/xlink" x="0px" y="0px"
	 viewBox="0 0 512 377.3" enable-background="new 0 0 512 377.3" xml:space="preserve">
<g>
	<g>
		<path fill="#312783" d="M475.5,285.4h-34.3v-39.5c0-9.5,7.7-17.1,17.1-17.1h0c9.5,0,17.1,7.7,17.1,17.1V285.4z"/>
		<path fill="#312783" d="M427.9,285.4h-30.9v-59.5c0-8.5,6.9-15.5,15.5-15.5h0c8.5,0,15.5,6.9,15.5,15.5V285.4z"/>
		<path fill="#312783" d="M386.3,285.4h-36.9v-76.3c0-10.2,8.3-18.4,18.4-18.4h0c10.2,0,18.4,8.3,18.4,18.4V285.4z"/>
		<path fill="#312783" d="M341.3,285.4h-51.4v-88c0-14.2,11.5-25.7,25.7-25.7h0c14.2,0,25.7,11.5,25.7,25.7V285.4z"/>
		<path fill="#312783" d="M36.5,285.4h34.3v-39.5c0-9.5-7.7-17.1-17.1-17.1h0c-9.5,0-17.1,7.7-17.1,17.1V285.4z"/>
		<path fill="#312783" d="M84.1,285.4h30.9v-59.5c0-8.5-6.9-15.5-15.5-15.5h0c-8.5,0-15.5,6.9-15.5,15.5V285.4z"/>
		<path fill="#312783" d="M125.7,285.4h36.9v-76.3c0-10.2-8.3-18.4-18.4-18.4h0c-10.2,0-18.4,8.3-18.4,18.4V285.4z"/>
		<path fill="#312783" d="M170.7,285.4h51.4v-88c0-14.2-11.5-25.7-25.7-25.7h0c-14.2,0-25.7,11.5-25.7,25.7V285.4z"/>
		<path fill="#312783" d="M281.8,285.4h-51.4V178.9c0-14.2,11.5-25.7,25.7-25.7h0c14.2,0,25.7,11.5,25.7,25.7V285.4z"/>
	</g>
	<path fill="#312783" d="M440.4,181l-30.5-12l-30.5-11.9l-15.3-5.9l-15.3-5.9l-30.6-11.7l-60.3-22.8V20.5h7.4v-3.2h-7.4V8.4h-3.2
		v8.9h-7.4v3.2h7.4v90.1l-61,23.1c-20.4,7.8-40.8,15.6-61.1,23.5L102.1,169l-30.5,12c-20.3,8-40.6,16.1-60.8,24.3
		c20.7-7.1,41.2-14.4,61.8-21.7l30.8-11.1l30.8-11.2c20.5-7.4,41-15.1,61.5-22.6l60.3-22.5l60.3,22.5l30.7,11.3l15.4,5.7l15.4,5.6
		l30.8,11.2l30.8,11.1c20.6,7.3,41.1,14.6,61.8,21.7C480.9,197.1,460.6,189,440.4,181z"/>
	<g>
		<g>
			<path fill="#312783" d="M24.5,329.7v-29h10.8c2.5,0,4.6,0.4,6.3,1.2c1.8,0.8,3.1,1.9,4.1,3.4c1,1.5,1.4,3.3,1.4,5.4
				c0,2-0.5,3.8-1.4,5.3s-2.3,2.6-4.1,3.4c-1.8,0.8-3.9,1.2-6.3,1.2h-9.1l1.4-1.4v10.6H24.5z M27.6,319.3l-1.4-1.5h9.1
				c2.9,0,5.1-0.6,6.6-1.9c1.5-1.3,2.3-3,2.3-5.3c0-2.3-0.8-4.1-2.3-5.4c-1.5-1.3-3.7-1.9-6.6-1.9h-9.1l1.4-1.4V319.3z"/>
			<path fill="#312783" d="M49.6,329.7l13.2-29h3l13.2,29h-3.2l-12.2-27.2h1.2l-12.2,27.2H49.6z M54.8,321.9l0.9-2.5h16.8l0.9,2.5
				H54.8z"/>
			<path fill="#312783" d="M83.9,329.7v-29h10.8c2.5,0,4.6,0.4,6.3,1.2c1.8,0.8,3.1,1.9,4.1,3.4c1,1.5,1.4,3.3,1.4,5.4
				c0,2-0.5,3.8-1.4,5.3s-2.3,2.6-4.1,3.4c-1.8,0.8-3.9,1.2-6.3,1.2h-9.1l1.4-1.4v10.6H83.9z M87,319.3l-1.4-1.4h9.1
				c2.9,0,5.1-0.6,6.6-1.9c1.5-1.3,2.3-3,2.3-5.3c0-2.3-0.8-4.1-2.3-5.4c-1.5-1.3-3.7-1.9-6.6-1.9h-9.1l1.4-1.4V319.3z M103.7,329.7
				l-7.4-10.5h3.3l7.5,10.5H103.7z"/>
			<path fill="#312783" d="M113.8,329.7v-29h10.8c2.5,0,4.6,0.4,6.3,1.2c1.8,0.8,3.1,1.9,4.1,3.4c1,1.5,1.4,3.3,1.4,5.4
				c0,2-0.5,3.8-1.4,5.3s-2.3,2.6-4.1,3.4c-1.8,0.8-3.9,1.2-6.3,1.2h-9.1l1.4-1.4v10.6H113.8z M116.9,319.3l-1.4-1.4h9.1
				c2.9,0,5.1-0.6,6.6-1.9c1.5-1.3,2.3-3,2.3-5.3c0-2.3-0.8-4.1-2.3-5.4c-1.5-1.3-3.7-1.9-6.6-1.9h-9.1l1.4-1.4V319.3z M133.6,329.7
				l-7.4-10.5h3.3l7.5,10.5H133.6z"/>
			<path fill="#312783" d="M156.4,329.9c-2.2,0-4.2-0.4-6.1-1.1c-1.9-0.7-3.5-1.8-4.8-3.1c-1.4-1.3-2.4-2.9-3.2-4.7
				s-1.1-3.7-1.1-5.9c0-2.1,0.4-4.1,1.1-5.9s1.8-3.3,3.2-4.7c1.4-1.3,3-2.4,4.8-3.1c1.8-0.7,3.9-1.1,6.1-1.1c2.2,0,4.2,0.4,6,1.1
				c1.8,0.7,3.5,1.8,4.8,3.1c1.4,1.3,2.4,2.9,3.2,4.7c0.8,1.8,1.1,3.8,1.1,5.9c0,2.1-0.4,4.1-1.1,5.9c-0.8,1.8-1.8,3.4-3.2,4.7
				c-1.4,1.3-3,2.4-4.8,3.1C160.6,329.6,158.6,329.9,156.4,329.9z M156.4,327.2c1.7,0,3.3-0.3,4.8-0.9c1.5-0.6,2.8-1.4,3.8-2.5
				c1.1-1.1,1.9-2.4,2.5-3.8c0.6-1.4,0.9-3,0.9-4.8c0-1.7-0.3-3.3-0.9-4.8c-0.6-1.4-1.5-2.7-2.5-3.8c-1.1-1.1-2.4-1.9-3.8-2.5
				c-1.5-0.6-3.1-0.9-4.8-0.9c-1.7,0-3.4,0.3-4.8,0.9c-1.5,0.6-2.8,1.4-3.9,2.5c-1.1,1.1-2,2.4-2.6,3.8c-0.6,1.4-0.9,3-0.9,4.8
				c0,1.7,0.3,3.3,0.9,4.8c0.6,1.5,1.5,2.7,2.6,3.8c1.1,1.1,2.4,1.9,3.9,2.5C153,326.9,154.7,327.2,156.4,327.2z"/>
			<path fill="#312783" d="M191,329.9c-2.2,0-4.2-0.4-6-1.1c-1.8-0.7-3.4-1.8-4.8-3.1c-1.4-1.3-2.4-2.9-3.2-4.7
				c-0.8-1.8-1.1-3.8-1.1-5.9c0-2.1,0.4-4.1,1.1-5.9c0.8-1.8,1.8-3.4,3.2-4.7s3-2.4,4.8-3.1c1.8-0.7,3.9-1.1,6-1.1
				c2.1,0,4.1,0.4,5.9,1.1c1.8,0.7,3.4,1.8,4.7,3.2l-1.9,1.9c-1.2-1.2-2.5-2.1-3.9-2.6c-1.4-0.5-3-0.8-4.6-0.8
				c-1.7,0-3.4,0.3-4.8,0.9c-1.5,0.6-2.8,1.4-3.9,2.5c-1.1,1.1-2,2.4-2.6,3.8c-0.6,1.4-0.9,3-0.9,4.8c0,1.7,0.3,3.3,0.9,4.8
				c0.6,1.4,1.5,2.7,2.6,3.8c1.1,1.1,2.4,1.9,3.9,2.5c1.5,0.6,3.1,0.9,4.8,0.9c1.7,0,3.2-0.3,4.6-0.8c1.4-0.6,2.7-1.4,3.9-2.6
				l1.9,1.9c-1.3,1.4-2.8,2.5-4.7,3.2C195.1,329.6,193.2,329.9,191,329.9z"/>
			<path fill="#312783" d="M220.8,329.9c-2.2,0-4.2-0.4-6-1.1c-1.8-0.7-3.4-1.8-4.8-3.1c-1.4-1.3-2.4-2.9-3.2-4.7
				c-0.8-1.8-1.1-3.8-1.1-5.9c0-2.1,0.4-4.1,1.1-5.9c0.8-1.8,1.8-3.4,3.2-4.7s3-2.4,4.8-3.1c1.8-0.7,3.9-1.1,6-1.1
				c2.1,0,4.1,0.4,5.9,1.1c1.8,0.7,3.4,1.8,4.7,3.2l-1.9,1.9c-1.2-1.2-2.5-2.1-3.9-2.6c-1.4-0.5-3-0.8-4.6-0.8
				c-1.7,0-3.4,0.3-4.8,0.9c-1.5,0.6-2.8,1.4-3.9,2.5c-1.1,1.1-2,2.4-2.6,3.8c-0.6,1.4-0.9,3-0.9,4.8c0,1.7,0.3,3.3,0.9,4.8
				c0.6,1.4,1.5,2.7,2.6,3.8c1.1,1.1,2.4,1.9,3.9,2.5c1.5,0.6,3.1,0.9,4.8,0.9c1.7,0,3.2-0.3,4.6-0.8c1.4-0.6,2.7-1.4,3.9-2.6
				l1.9,1.9c-1.3,1.4-2.8,2.5-4.7,3.2C224.9,329.6,222.9,329.9,220.8,329.9z"/>
			<path fill="#312783" d="M241,329.7H238v-29h3.1V329.7z M259.4,316.3h-18.7v-2.7h18.7V316.3z M259.1,300.7h3v29h-3V300.7z"/>
			<path fill="#312783" d="M271.6,329.7v-29h3.1v29H271.6z"/>
			<path fill="#312783" d="M279.5,329.7l13.2-29h3l13.2,29h-3.2l-12.2-27.2h1.2l-12.2,27.2H279.5z M284.7,321.9l0.9-2.5h16.8
				l0.9,2.5H284.7z"/>
			<path fill="#312783" d="M332.6,329.9c-2.2,0-4.2-0.4-6.2-1.1c-2-0.7-3.5-1.6-4.6-2.7l1.2-2.4c1,1,2.4,1.8,4.1,2.5
				c1.7,0.7,3.5,1,5.4,1c1.8,0,3.3-0.2,4.4-0.7c1.1-0.5,2-1.1,2.5-1.8s0.8-1.6,0.8-2.6c0-1.1-0.3-2-1-2.7c-0.6-0.7-1.5-1.2-2.5-1.6
				c-1-0.4-2.2-0.8-3.5-1.1c-1.3-0.3-2.5-0.6-3.8-1c-1.3-0.3-2.4-0.8-3.5-1.4c-1.1-0.6-1.9-1.3-2.6-2.3c-0.6-1-1-2.2-1-3.7
				c0-1.4,0.4-2.8,1.1-4c0.8-1.2,1.9-2.2,3.5-2.9c1.6-0.7,3.6-1.1,6-1.1c1.6,0,3.2,0.2,4.8,0.7c1.6,0.5,3,1.1,4.1,1.9l-1,2.4
				c-1.2-0.8-2.6-1.4-4-1.8c-1.4-0.4-2.7-0.6-4-0.6c-1.7,0-3.2,0.2-4.3,0.7c-1.1,0.5-2,1.1-2.5,1.9c-0.5,0.8-0.8,1.7-0.8,2.7
				c0,1.1,0.3,2,1,2.7c0.6,0.7,1.5,1.2,2.6,1.6c1.1,0.4,2.2,0.7,3.5,1c1.3,0.3,2.5,0.6,3.8,1c1.3,0.4,2.4,0.8,3.5,1.4
				c1.1,0.6,1.9,1.3,2.6,2.3c0.6,0.9,1,2.2,1,3.7c0,1.4-0.4,2.7-1.2,3.9c-0.8,1.2-2,2.2-3.5,2.9
				C337.1,329.6,335.1,329.9,332.6,329.9z"/>
			<path fill="#312783" d="M349.7,329.9c-0.6,0-1.1-0.2-1.6-0.7c-0.4-0.4-0.6-1-0.6-1.6c0-0.7,0.2-1.2,0.6-1.6
				c0.4-0.4,0.9-0.6,1.6-0.6c0.6,0,1.1,0.2,1.6,0.6c0.4,0.4,0.6,1,0.6,1.6c0,0.6-0.2,1.2-0.6,1.6
				C350.8,329.7,350.3,329.9,349.7,329.9z"/>
			<path fill="#312783" d="M365,329.7l13.2-29h3l13.2,29h-3.2l-12.2-27.2h1.2l-12.2,27.2H365z M370.2,321.9l0.9-2.5H388l0.9,2.5
				H370.2z"/>
			<path fill="#312783" d="M399.3,329.7v-29h2.5l20,25.2h-1.3v-25.2h3v29H421l-19.9-25.2h1.3v25.2H399.3z"/>
			<path fill="#312783" d="M433,329.7v-29h2.5l20,25.2h-1.3v-25.2h3v29h-2.5l-19.9-25.2h1.3v25.2H433z"/>
			<path fill="#312783" d="M462,329.7l13.2-29h3l13.2,29h-3.2l-12.2-27.2h1.2l-12.2,27.2H462z M467.2,321.9l0.9-2.5h16.8l0.9,2.5
				H467.2z"/>
		</g>
	</g>
	<g>
		<g>
			<path fill="#312783" d="M24.7,361.4v-20.1h2.1v18.2H38v1.8H24.7z"/>
			<path fill="#312783" d="M49.8,361.6c-1.3,0-2.4-0.2-3.4-0.7c-1-0.5-1.7-1.2-2.2-2.1c-0.5-1-0.8-2.1-0.8-3.6v-8.7h2v8.5
				c0,1.6,0.4,2.8,1.2,3.6c0.8,0.8,1.9,1.2,3.3,1.2c1.1,0,2-0.2,2.7-0.6s1.4-1.1,1.8-1.9c0.4-0.8,0.6-1.8,0.6-3v-7.9h2v15h-1.9v-4.1
				l0.3,0.7c-0.5,1.1-1.2,2-2.2,2.6C52.3,361.3,51.1,361.6,49.8,361.6z"/>
			<path fill="#312783" d="M71.4,360.9c-1.4,0-2.7-0.3-3.9-0.9c-1.1-0.6-2-1.5-2.7-2.6c-0.7-1.1-1-2.4-1-3.8c0-1.4,0.3-2.7,1-3.8
				c0.7-1.1,1.6-2,2.7-2.6c1.1-0.6,2.4-0.9,3.9-0.9c1.3,0,2.5,0.3,3.6,0.8c1.1,0.6,1.9,1.4,2.5,2.5c0.6,1.1,0.9,2.4,0.9,4
				c0,1.6-0.3,2.9-0.9,4c-0.6,1.1-1.5,1.9-2.5,2.5C73.9,360.6,72.7,360.9,71.4,360.9z M71.8,367.1c-1.4,0-2.7-0.2-4-0.6
				c-1.3-0.4-2.3-1-3.1-1.7l1-1.5c0.7,0.6,1.6,1.1,2.6,1.5c1,0.4,2.1,0.6,3.3,0.6c1.9,0,3.3-0.4,4.2-1.3c0.9-0.9,1.3-2.3,1.3-4.1
				v-3.8l0.3-2.6l-0.2-2.6v-4.6h1.9v13.2c0,2.6-0.6,4.5-1.9,5.7C76.1,366.5,74.2,367.1,71.8,367.1z M71.6,359.1c1.1,0,2.1-0.2,3-0.7
				c0.9-0.5,1.5-1.1,2-1.9c0.5-0.8,0.7-1.8,0.7-2.9c0-1.1-0.2-2-0.7-2.9c-0.5-0.8-1.2-1.5-2-1.9s-1.8-0.7-3-0.7
				c-1.1,0-2.1,0.2-2.9,0.7c-0.9,0.5-1.5,1.1-2,1.9c-0.5,0.8-0.7,1.8-0.7,2.9c0,1.1,0.2,2,0.7,2.9c0.5,0.8,1.2,1.5,2,1.9
				C69.5,358.8,70.5,359.1,71.6,359.1z"/>
			<path fill="#312783" d="M91.7,361.6c-1.1,0-2.1-0.2-2.9-0.6c-0.8-0.4-1.5-0.9-1.9-1.5c-0.4-0.7-0.7-1.4-0.7-2.3
				c0-0.8,0.2-1.5,0.6-2.1s1-1.2,1.8-1.5c0.8-0.4,2-0.6,3.4-0.6h5.2v1.5h-5.1c-1.5,0-2.5,0.3-3,0.8c-0.6,0.5-0.8,1.2-0.8,1.9
				c0,0.9,0.3,1.5,1,2.1s1.6,0.8,2.8,0.8c1.1,0,2.1-0.3,3-0.8c0.8-0.5,1.4-1.3,1.8-2.3l0.5,1.4c-0.4,1-1,1.8-2,2.4
				C94.3,361.3,93.1,361.6,91.7,361.6z M96.9,361.4v-3.3l-0.1-0.5V352c0-1.3-0.4-2.3-1.1-3c-0.7-0.7-1.8-1-3.2-1
				c-1,0-1.9,0.2-2.8,0.5s-1.6,0.8-2.2,1.3l-0.9-1.5c0.8-0.6,1.7-1.2,2.8-1.5c1.1-0.4,2.2-0.5,3.4-0.5c1.9,0,3.5,0.5,4.5,1.4
				s1.6,2.4,1.6,4.4v9.3H96.9z"/>
			<path fill="#312783" d="M112.9,360.9c-1.4,0-2.7-0.3-3.9-0.9c-1.1-0.6-2-1.5-2.7-2.6c-0.7-1.1-1-2.4-1-3.8c0-1.4,0.3-2.7,1-3.8
				c0.7-1.1,1.6-2,2.7-2.6c1.1-0.6,2.4-0.9,3.9-0.9c1.3,0,2.5,0.3,3.6,0.8c1.1,0.6,1.9,1.4,2.5,2.5c0.6,1.1,0.9,2.4,0.9,4
				c0,1.6-0.3,2.9-0.9,4c-0.6,1.1-1.5,1.9-2.5,2.5C115.4,360.6,114.2,360.9,112.9,360.9z M113.3,367.1c-1.4,0-2.7-0.2-4-0.6
				c-1.3-0.4-2.3-1-3.1-1.7l1-1.5c0.7,0.6,1.6,1.1,2.6,1.5c1,0.4,2.1,0.6,3.3,0.6c1.9,0,3.3-0.4,4.2-1.3c0.9-0.9,1.3-2.3,1.3-4.1
				v-3.8l0.3-2.6l-0.2-2.6v-4.6h1.9v13.2c0,2.6-0.6,4.5-1.9,5.7C117.6,366.5,115.7,367.1,113.3,367.1z M113.1,359.1
				c1.1,0,2.1-0.2,3-0.7c0.9-0.5,1.5-1.1,2-1.9c0.5-0.8,0.7-1.8,0.7-2.9c0-1.1-0.2-2-0.7-2.9c-0.5-0.8-1.2-1.5-2-1.9s-1.8-0.7-3-0.7
				c-1.1,0-2.1,0.2-2.9,0.7c-0.9,0.5-1.5,1.1-2,1.9c-0.5,0.8-0.7,1.8-0.7,2.9c0,1.1,0.2,2,0.7,2.9c0.5,0.8,1.2,1.5,2,1.9
				C111,358.8,112,359.1,113.1,359.1z"/>
			<path fill="#312783" d="M136.6,346.2c1.2,0,2.3,0.2,3.2,0.7c0.9,0.5,1.7,1.2,2.2,2.1c0.5,1,0.8,2.2,0.8,3.6v8.7h-2v-8.5
				c0-1.6-0.4-2.8-1.2-3.6c-0.8-0.8-1.9-1.2-3.3-1.2c-1.1,0-2,0.2-2.8,0.6s-1.4,1.1-1.8,1.9s-0.6,1.8-0.6,2.9v7.9h-2v-15h1.9v4.1
				l-0.3-0.8c0.5-1.1,1.2-1.9,2.3-2.6C133.9,346.6,135.2,346.2,136.6,346.2z"/>
			<path fill="#312783" d="M155.1,361.6c-1.1,0-2.1-0.2-2.9-0.6c-0.8-0.4-1.5-0.9-1.9-1.5c-0.4-0.7-0.7-1.4-0.7-2.3
				c0-0.8,0.2-1.5,0.6-2.1s1-1.2,1.8-1.5c0.8-0.4,2-0.6,3.4-0.6h5.2v1.5h-5.1c-1.5,0-2.5,0.3-3,0.8c-0.6,0.5-0.8,1.2-0.8,1.9
				c0,0.9,0.3,1.5,1,2.1s1.6,0.8,2.8,0.8c1.1,0,2.1-0.3,3-0.8c0.8-0.5,1.4-1.3,1.8-2.3l0.5,1.4c-0.4,1-1,1.8-2,2.4
				C157.7,361.3,156.5,361.6,155.1,361.6z M160.2,361.4v-3.3l-0.1-0.5V352c0-1.3-0.4-2.3-1.1-3c-0.7-0.7-1.8-1-3.2-1
				c-1,0-1.9,0.2-2.8,0.5s-1.6,0.8-2.2,1.3l-0.9-1.5c0.8-0.6,1.7-1.2,2.8-1.5c1.1-0.4,2.2-0.5,3.4-0.5c1.9,0,3.5,0.5,4.5,1.4
				s1.6,2.4,1.6,4.4v9.3H160.2z"/>
			<path fill="#312783" d="M177.9,346.2c1.2,0,2.3,0.2,3.2,0.7c0.9,0.5,1.7,1.2,2.2,2.1c0.5,1,0.8,2.2,0.8,3.6v8.7h-2v-8.5
				c0-1.6-0.4-2.8-1.2-3.6c-0.8-0.8-1.9-1.2-3.3-1.2c-1.1,0-2,0.2-2.8,0.6s-1.4,1.1-1.8,1.9s-0.6,1.8-0.6,2.9v7.9h-2v-15h1.9v4.1
				l-0.3-0.8c0.5-1.1,1.2-1.9,2.3-2.6C175.2,346.6,176.4,346.2,177.9,346.2z"/>
			<path fill="#312783" d="M198.2,361.6c-1.5,0-2.8-0.3-3.9-1c-1.1-0.7-2.1-1.6-2.7-2.7s-1-2.5-1-4c0-1.5,0.3-2.8,1-4
				c0.7-1.1,1.6-2,2.7-2.7s2.5-1,3.9-1c1.5,0,2.8,0.3,4,1c1.2,0.7,2.1,1.6,2.7,2.7c0.7,1.1,1,2.5,1,4c0,1.5-0.3,2.8-1,4
				c-0.7,1.2-1.6,2.1-2.7,2.7C201,361.2,199.7,361.6,198.2,361.6z M198.2,359.8c1.1,0,2.1-0.2,2.9-0.7c0.8-0.5,1.5-1.2,2-2.1
				c0.5-0.9,0.7-1.9,0.7-3.1c0-1.2-0.2-2.2-0.7-3.1c-0.5-0.9-1.2-1.6-2-2c-0.8-0.5-1.8-0.7-2.9-0.7c-1.1,0-2,0.2-2.9,0.7
				c-0.8,0.5-1.5,1.2-2,2c-0.5,0.9-0.7,1.9-0.7,3.1c0,1.2,0.2,2.2,0.7,3.1c0.5,0.9,1.2,1.6,2,2.1
				C196.2,359.5,197.1,359.8,198.2,359.8z"/>
			<path fill="#312783" d="M228.5,361.6c-1.4,0-2.7-0.3-3.9-1c-1.1-0.6-2-1.6-2.7-2.7c-0.6-1.2-1-2.5-1-4c0-1.5,0.3-2.9,1-4
				c0.6-1.1,1.5-2,2.7-2.7c1.1-0.6,2.4-1,3.9-1c1.3,0,2.5,0.3,3.5,0.9c1,0.6,1.9,1.5,2.5,2.6c0.6,1.1,0.9,2.5,0.9,4.2
				c0,1.6-0.3,3-0.9,4.2c-0.6,1.1-1.4,2-2.5,2.6C231,361.3,229.9,361.6,228.5,361.6z M228.7,359.8c1.1,0,2-0.2,2.9-0.7
				c0.8-0.5,1.5-1.2,2-2.1c0.5-0.9,0.7-1.9,0.7-3.1c0-1.2-0.2-2.2-0.7-3.1c-0.5-0.9-1.2-1.6-2-2c-0.9-0.5-1.8-0.7-2.9-0.7
				c-1.1,0-2,0.2-2.8,0.7c-0.8,0.5-1.5,1.2-2,2c-0.5,0.9-0.7,1.9-0.7,3.1c0,1.2,0.2,2.2,0.7,3.1c0.5,0.9,1.2,1.6,2,2.1
				C226.7,359.5,227.6,359.8,228.7,359.8z M234.3,361.4v-4.5l0.2-3l-0.3-3v-10.7h2v21.3H234.3z"/>
			<path fill="#312783" d="M245.5,343.1c-0.4,0-0.8-0.1-1.1-0.4s-0.4-0.6-0.4-1s0.1-0.7,0.4-1c0.3-0.3,0.6-0.4,1.1-0.4
				c0.4,0,0.8,0.1,1.1,0.4c0.3,0.3,0.4,0.6,0.4,1c0,0.4-0.1,0.8-0.4,1.1C246.3,342.9,245.9,343.1,245.5,343.1z M244.4,361.4v-15h2
				v15H244.4z"/>
			<path fill="#312783" d="M270.6,361.6c-1.5,0-2.9-0.2-4.3-0.7s-2.4-1.1-3.2-1.9l0.8-1.6c0.7,0.7,1.7,1.3,2.8,1.7
				c1.2,0.5,2.5,0.7,3.8,0.7c1.3,0,2.3-0.2,3.1-0.5c0.8-0.3,1.4-0.7,1.7-1.3c0.4-0.5,0.6-1.1,0.6-1.8c0-0.8-0.2-1.4-0.7-1.9
				c-0.4-0.5-1-0.9-1.8-1.1c-0.7-0.3-1.5-0.5-2.4-0.7c-0.9-0.2-1.8-0.4-2.6-0.7c-0.9-0.2-1.7-0.6-2.4-1c-0.7-0.4-1.3-0.9-1.8-1.6
				c-0.4-0.7-0.7-1.5-0.7-2.6c0-1,0.3-1.9,0.8-2.7s1.3-1.5,2.4-2s2.5-0.8,4.2-0.8c1.1,0,2.2,0.2,3.4,0.5c1.1,0.3,2.1,0.8,2.9,1.3
				l-0.7,1.7c-0.9-0.6-1.8-1-2.7-1.3c-1-0.3-1.9-0.4-2.8-0.4c-1.2,0-2.2,0.2-3,0.5c-0.8,0.3-1.4,0.8-1.7,1.3
				c-0.4,0.5-0.6,1.2-0.6,1.8c0,0.8,0.2,1.4,0.7,1.9c0.4,0.5,1,0.9,1.8,1.1c0.7,0.3,1.5,0.5,2.4,0.7c0.9,0.2,1.8,0.4,2.6,0.7
				s1.7,0.6,2.4,1c0.7,0.4,1.3,0.9,1.8,1.6c0.4,0.6,0.7,1.5,0.7,2.5c0,1-0.3,1.9-0.8,2.7c-0.5,0.8-1.4,1.5-2.4,2
				S272.3,361.6,270.6,361.6z"/>
			<path fill="#312783" d="M290.9,361.6c-1.5,0-2.8-0.3-3.9-1c-1.1-0.7-2.1-1.6-2.7-2.7s-1-2.5-1-4c0-1.5,0.3-2.8,1-4
				c0.7-1.1,1.6-2,2.7-2.7c1.1-0.6,2.5-1,3.9-1c1.5,0,2.8,0.3,4,1c1.2,0.7,2.1,1.6,2.7,2.7c0.7,1.1,1,2.5,1,4c0,1.5-0.3,2.8-1,4
				s-1.6,2.1-2.7,2.7C293.7,361.2,292.4,361.6,290.9,361.6z M290.9,359.8c1.1,0,2.1-0.2,2.9-0.7c0.8-0.5,1.5-1.2,2-2.1
				c0.5-0.9,0.7-1.9,0.7-3.1c0-1.2-0.2-2.2-0.7-3.1c-0.5-0.9-1.2-1.6-2-2c-0.8-0.5-1.8-0.7-2.9-0.7c-1.1,0-2,0.2-2.9,0.7
				c-0.8,0.5-1.5,1.2-2,2c-0.5,0.9-0.7,1.9-0.7,3.1c0,1.2,0.2,2.2,0.7,3.1c0.5,0.9,1.2,1.6,2,2.1
				C288.9,359.5,289.8,359.8,290.9,359.8z"/>
			<path fill="#312783" d="M312.9,346.2c1.2,0,2.3,0.2,3.2,0.7c0.9,0.5,1.7,1.2,2.2,2.1c0.5,1,0.8,2.2,0.8,3.6v8.7h-2v-8.5
				c0-1.6-0.4-2.8-1.2-3.6c-0.8-0.8-1.9-1.2-3.3-1.2c-1.1,0-2,0.2-2.8,0.6c-0.8,0.4-1.4,1.1-1.8,1.9s-0.6,1.8-0.6,2.9v7.9h-2v-15
				h1.9v4.1l-0.3-0.8c0.5-1.1,1.2-1.9,2.3-2.6C310.2,346.6,311.4,346.2,312.9,346.2z"/>
			<path fill="#312783" d="M331.3,361.6c-1.1,0-2.1-0.2-2.9-0.6c-0.8-0.4-1.5-0.9-1.9-1.5c-0.4-0.7-0.7-1.4-0.7-2.3
				c0-0.8,0.2-1.5,0.6-2.1c0.4-0.6,1-1.2,1.8-1.5s2-0.6,3.4-0.6h5.2v1.5h-5.1c-1.5,0-2.5,0.3-3,0.8s-0.8,1.2-0.8,1.9
				c0,0.9,0.3,1.5,1,2.1c0.7,0.5,1.6,0.8,2.8,0.8c1.1,0,2.1-0.3,3-0.8c0.8-0.5,1.4-1.3,1.8-2.3l0.5,1.4c-0.4,1-1,1.8-2,2.4
				C333.9,361.3,332.7,361.6,331.3,361.6z M336.5,361.4v-3.3l-0.1-0.5V352c0-1.3-0.4-2.3-1.1-3c-0.7-0.7-1.8-1-3.2-1
				c-1,0-1.9,0.2-2.8,0.5c-0.9,0.3-1.6,0.8-2.2,1.3l-0.9-1.5c0.8-0.6,1.7-1.2,2.8-1.5s2.2-0.5,3.4-0.5c1.9,0,3.5,0.5,4.5,1.4
				c1.1,1,1.6,2.4,1.6,4.4v9.3H336.5z"/>
			<path fill="#312783" d="M355.3,354.6v-1.8h7.5v1.8H355.3z"/>
			<path fill="#312783" d="M386,361.4l-8.9-20.1h2.3l8.3,18.9h-1.3l8.4-18.9h2.1l-8.9,20.1H386z"/>
			<path fill="#312783" d="M408.8,361.6c-1.6,0-2.9-0.3-4.1-1c-1.2-0.7-2.1-1.6-2.8-2.7s-1-2.5-1-4c0-1.5,0.3-2.8,1-4
				c0.6-1.1,1.5-2,2.6-2.7c1.1-0.7,2.4-1,3.8-1c1.4,0,2.7,0.3,3.8,1c1.1,0.6,2,1.5,2.6,2.7c0.6,1.2,0.9,2.5,0.9,4c0,0.1,0,0.2,0,0.3
				c0,0.1,0,0.2,0,0.3h-13.1V353h12l-0.8,0.6c0-1.1-0.2-2.1-0.7-2.9s-1.1-1.5-1.9-2c-0.8-0.5-1.7-0.7-2.8-0.7c-1,0-2,0.2-2.8,0.7
				c-0.8,0.5-1.5,1.1-1.9,2c-0.5,0.9-0.7,1.8-0.7,3v0.3c0,1.1,0.3,2.2,0.8,3s1.2,1.5,2.1,2c0.9,0.5,1.9,0.7,3.1,0.7
				c0.9,0,1.8-0.2,2.6-0.5c0.8-0.3,1.5-0.8,2-1.5l1.1,1.3c-0.7,0.8-1.5,1.4-2.5,1.8C411.1,361.4,410,361.6,408.8,361.6z"/>
			<path fill="#312783" d="M422.2,361.4v-15h1.9v4.1l-0.2-0.7c0.4-1.1,1.1-2,2.1-2.6c1-0.6,2.2-0.9,3.7-0.9v2c-0.1,0-0.2,0-0.2,0
				s-0.2,0-0.2,0c-1.6,0-2.8,0.5-3.7,1.4c-0.9,1-1.3,2.3-1.3,4.1v7.7H422.2z"/>
			<path fill="#312783" d="M442.3,361.6c-1.5,0-2.8-0.3-3.9-1c-1.1-0.7-2.1-1.6-2.7-2.7s-1-2.5-1-4c0-1.5,0.3-2.8,1-4
				c0.7-1.1,1.6-2,2.7-2.7c1.1-0.6,2.5-1,3.9-1c1.5,0,2.8,0.3,4,1c1.2,0.7,2.1,1.6,2.7,2.7c0.7,1.1,1,2.5,1,4c0,1.5-0.3,2.8-1,4
				s-1.6,2.1-2.7,2.7C445.1,361.2,443.8,361.6,442.3,361.6z M442.3,359.8c1.1,0,2.1-0.2,2.9-0.7c0.8-0.5,1.5-1.2,2-2.1
				c0.5-0.9,0.7-1.9,0.7-3.1c0-1.2-0.2-2.2-0.7-3.1c-0.5-0.9-1.2-1.6-2-2c-0.8-0.5-1.8-0.7-2.9-0.7c-1.1,0-2,0.2-2.9,0.7
				c-0.8,0.5-1.5,1.2-2,2c-0.5,0.9-0.7,1.9-0.7,3.1c0,1.2,0.2,2.2,0.7,3.1c0.5,0.9,1.2,1.6,2,2.1
				C440.3,359.5,441.2,359.8,442.3,359.8z"/>
			<path fill="#312783" d="M464.3,346.2c1.2,0,2.3,0.2,3.2,0.7c0.9,0.5,1.7,1.2,2.2,2.1c0.5,1,0.8,2.2,0.8,3.6v8.7h-2v-8.5
				c0-1.6-0.4-2.8-1.2-3.6c-0.8-0.8-1.9-1.2-3.3-1.2c-1.1,0-2,0.2-2.8,0.6c-0.8,0.4-1.4,1.1-1.8,1.9s-0.6,1.8-0.6,2.9v7.9h-2v-15
				h1.9v4.1l-0.3-0.8c0.5-1.1,1.2-1.9,2.3-2.6C461.6,346.6,462.8,346.2,464.3,346.2z"/>
			<path fill="#312783" d="M482.7,361.6c-1.1,0-2.1-0.2-2.9-0.6c-0.8-0.4-1.5-0.9-1.9-1.5c-0.4-0.7-0.7-1.4-0.7-2.3
				c0-0.8,0.2-1.5,0.6-2.1c0.4-0.6,1-1.2,1.8-1.5s2-0.6,3.4-0.6h5.2v1.5h-5.1c-1.5,0-2.5,0.3-3,0.8s-0.8,1.2-0.8,1.9
				c0,0.9,0.3,1.5,1,2.1c0.7,0.5,1.6,0.8,2.8,0.8c1.1,0,2.1-0.3,3-0.8c0.8-0.5,1.4-1.3,1.8-2.3l0.5,1.4c-0.4,1-1,1.8-2,2.4
				C485.3,361.3,484.1,361.6,482.7,361.6z M487.9,361.4v-3.3l-0.1-0.5V352c0-1.3-0.4-2.3-1.1-3c-0.7-0.7-1.8-1-3.2-1
				c-1,0-1.9,0.2-2.8,0.5c-0.9,0.3-1.6,0.8-2.2,1.3l-0.9-1.5c0.8-0.6,1.7-1.2,2.8-1.5s2.2-0.5,3.4-0.5c1.9,0,3.5,0.5,4.5,1.4
				c1.1,1,1.6,2.4,1.6,4.4v9.3H487.9z"/>
		</g>
	</g>
</g>
</svg>
